#!OML:ASF F:\VICON\USERDATA\INSTALL\Justin_Nancy\Justin_Nancy.ASF
:FULLY-SPECIFIED
:DEGREES
468
root 8.95035 17.1545 26.2054 3.86356 36.702 6.01913
lowerback 7.02107 -1.89153 -4.73291
upperback 0.571118 -2.80962 2.10234
thorax -3.01003 -1.32496 5.10907
lowerneck -17.4694 -2.5808 -9.56936
upperneck 23.3244 -1.45198 2.66993
head 10.4867 -1.1674 2.35482
rclavicle 9.3727e-014 -3.57812e-014
rhumerus -37.8274 -18.803 -73.6225
rradius 26.5774
rwrist 9.30396
rhand -13.5981 14.2155
rfingers 7.12502
rthumb 12.5166 -15.3896
lclavicle 9.3727e-014 -3.57812e-014
lhumerus -25.9661 8.22706 81.6038
lradius 34.2679
lwrist -6.43638
lhand -17.3084 24.7665
lfingers 7.12502
lthumb 8.93777 54.5572
rfemur -27.3372 3.227 15.9505
rtibia 21.5621
rfoot -1.13853 -7.40835
rtoes 13.0387
lfemur 9.38168 -4.82275 -28.7853
ltibia 23.7844
lfoot -15.7971 3.58104
ltoes -13.7174
469
root 9.03383 17.1941 26.3516 3.73801 37.1058 5.71161
lowerback 6.81437 -2.04322 -4.45594
upperback 0.544835 -2.97871 2.20701
thorax -2.90951 -1.41493 5.06613
lowerneck -17.5864 -2.53002 -9.39548
upperneck 23.5593 -1.35834 2.45545
head 10.5863 -1.13948 2.26454
rclavicle 3.88624e-014 -3.97569e-015
rhumerus -37.8716 -19.0714 -73.4451
rradius 26.4886
rwrist 9.2314
rhand -13.5677 14.186
rfingers 7.12502
rthumb 12.5459 -15.4173
lclavicle 3.88624e-014 -3.97569e-015
lhumerus -25.907 9.11405 81.5846
lradius 33.4347
lwrist -7.19299
lhand -17.1187 24.8904
lfingers 7.12502
lthumb 9.12082 54.6732
rfemur -26.8882 3.00437 16.3333
rtibia 21.5885
rfoot -0.1017 -8.55161
rtoes 16.1514
lfemur 9.29062 -5.09764 -28.4224
ltibia 24.6135
lfoot -14.9348 3.31074
ltoes -15.835
470
root 9.11506 17.2242 26.5063 3.78765 37.2438 5.69209
lowerback 6.5875 -2.11067 -4.58187
upperback 0.48651 -3.06655 2.32509
thorax -2.81962 -1.45868 5.25827
lowerneck -17.5773 -2.50394 -9.45371
upperneck 23.7161 -1.26377 2.31318
head 10.6373 -1.12198 2.2382
rclavicle 3.40916e-014 3.57812e-014
rhumerus -37.94 -19.1251 -73.1843
rradius 26.4764
rwrist 8.88694
rhand -13.0713 13.9255
rfingers 7.12502
rthumb 13.0244 -15.6479
lclavicle 3.40916e-014 3.57812e-014
lhumerus -26.2891 9.28369 81.8033
lradius 33.3178
lwrist -7.09064
lhand -17.0037 25.0843
lfingers 7.12502
lthumb 9.23176 54.8622
rfemur -26.4589 3.03465 16.3975
rtibia 21.3841
rfoot 0.600236 -8.38637
rtoes 13.7839
lfemur 9.25207 -5.66648 -28.4871
ltibia 25.5399
lfoot -13.9011 3.3659
ltoes -16.6654
471
root 9.19182 17.2544 26.6588 3.21774 37.147 4.72207
lowerback 6.41742 -2.08304 -3.88738
upperback 0.481811 -2.9637 2.5869
thorax -2.76307 -1.41562 5.12255
lowerneck -17.6243 -2.54358 -9.5994
upperneck 23.9117 -1.26599 2.30934
head 10.7214 -1.14091 2.26294
rclavicle -3.97569e-015 1.27222e-014
rhumerus -38.0332 -19.4227 -72.9015
rradius 26.4136
rwrist 9.00584
rhand -12.8803 13.8047
rfingers 7.12502
rthumb 13.2086 -15.7569
lclavicle -3.97569e-015 1.27222e-014
lhumerus -26.4732 9.4407 81.9484
lradius 32.8758
lwrist -7.06852
lhand -17.0269 25.2516
lfingers 7.12502
lthumb 9.20942 55.0305
rfemur -25.9559 3.51495 17.2305
rtibia 21.0462
rfoot 0.977864 -7.70462
rtoes 11.9573
lfemur 9.11763 -5.9384 -27.6996
ltibia 26.7878
lfoot -12.8821 3.34572
ltoes -16.7415
472
root 9.27543 17.2875 26.8035 2.62022 37.0924 3.89111
lowerback 6.47589 -2.06444 -3.12151
upperback 0.451192 -2.87789 2.75301
thorax -2.86653 -1.37698 4.85982
lowerneck -17.7319 -2.5348 -9.63421
upperneck 24.1239 -1.2399 2.35542
head 10.8195 -1.13119 2.29177
rclavicle 4.83047e-014 2.38542e-015
rhumerus -38.2782 -19.5001 -72.7311
rradius 26.4776
rwrist 9.00105
rhand -13.1449 13.867
rfingers 7.12502
rthumb 12.9535 -15.7109
lclavicle 4.83047e-014 2.38542e-015
lhumerus -26.405 10.5367 81.8254
lradius 31.7105
lwrist -8.00969
lhand -17.0884 24.5741
lfingers 7.12502
lthumb 9.15005 54.3556
rfemur -25.2248 3.79634 17.9699
rtibia 20.6503
rfoot 1.26055 -6.86893
rtoes 11.0787
lfemur 8.77626 -6.01283 -27.0161
ltibia 28.4083
lfoot -11.5968 3.36933
ltoes -16.3555
473
root 9.36478 17.3041 26.9407 2.40827 37.1005 3.67763
lowerback 6.56316 -2.05053 -2.81194
upperback 0.41255 -2.83528 2.81252
thorax -2.97192 -1.35562 4.74901
lowerneck -17.738 -2.58218 -9.65638
upperneck 24.17 -1.28104 2.29225
head 10.8414 -1.16073 2.26695
rclavicle 1.17979e-013 -2.8625e-014
rhumerus -38.435 -19.6652 -72.5026
rradius 26.4247
rwrist 8.9703
rhand -13.464 13.8377
rfingers 7.12502
rthumb 12.6459 -15.7595
lclavicle 1.17979e-013 -2.8625e-014
lhumerus -26.7359 11.241 81.8206
lradius 31.087
lwrist -8.7393
lhand -17.0369 23.7948
lfingers 7.12502
lthumb 9.19974 53.5741
rfemur -24.3689 3.35411 18.3428
rtibia 20.2611
rfoot 1.55025 -5.22735
rtoes 9.45263
lfemur 8.27621 -6.29792 -26.9468
ltibia 30.2655
lfoot -9.87696 3.58895
ltoes -12.5431
474
root 9.44326 17.3254 27.0835 2.20644 36.8439 3.26742
lowerback 6.51611 -1.94435 -2.53592
upperback 0.363382 -2.66668 2.95779
thorax -3.01931 -1.2721 4.73025
lowerneck -17.742 -2.71572 -9.99644
upperneck 24.3049 -1.41803 2.48914
head 10.9078 -1.23349 2.37695
rclavicle 8.0309e-014 1.19271e-014
rhumerus -38.565 -19.5333 -72.3918
rradius 26.4756
rwrist 8.66671
rhand -13.831 13.9176
rfingers 7.12502
rthumb 12.292 -15.7011
lclavicle 8.0309e-014 1.19271e-014
lhumerus -27.2428 11.0535 82.0824
lradius 31.0595
lwrist -8.5456
lhand -16.9839 24.2734
lfingers 7.12502
lthumb 9.25092 54.0505
rfemur -23.8575 3.35391 18.9245
rtibia 20.2649
rfoot 1.73297 -4.03242
rtoes 11.4573
lfemur 7.64033 -6.247 -26.5571
ltibia 32.0356
lfoot -8.60922 3.2176
ltoes -8.5003
475
root 9.51945 17.3532 27.2378 1.7618 36.5285 2.60477
lowerback 6.48155 -1.83939 -2.09856
upperback 0.328305 -2.48772 3.10108
thorax -3.0663 -1.1858 4.61709
lowerneck -17.8122 -2.69968 -9.96713
upperneck 24.4982 -1.38032 2.44515
head 10.9906 -1.22338 2.36395
rclavicle -3.47873e-014 -2.78299e-014
rhumerus -38.7611 -19.7794 -72.1508
rradius 26.4907
rwrist 8.60754
rhand -13.3875 14.0202
rfingers 7.12502
rthumb 12.7197 -15.5724
lclavicle -3.47873e-014 -2.78299e-014
lhumerus -27.6067 11.3808 82.0738
lradius 30.7495
lwrist -8.87024
lhand -16.5127 24.1273
lfingers 7.12502
lthumb 9.70557 53.8837
rfemur -23.424 3.61217 19.6875
rtibia 20.6578
rfoot 1.56492 -3.58045
rtoes 15.9323
lfemur 6.91879 -5.51405 -25.7829
ltibia 33.7484
lfoot -7.49447 2.22763
ltoes -10.4119
476
root 9.60947 17.3731 27.401 1.69411 36.5035 2.88881
lowerback 6.53096 -1.75745 -2.27238
upperback 0.278903 -2.39697 2.96552
thorax -3.15241 -1.13679 4.56989
lowerneck -17.645 -2.63151 -9.77824
upperneck 24.4962 -1.34423 2.39067
head 10.9515 -1.19589 2.31858
rclavicle -1.97791e-014 -7.15625e-015
rhumerus -39.1752 -19.9751 -71.9232
rradius 26.6574
rwrist 8.11428
rhand -12.6943 13.7707
rfingers 7.12502
rthumb 13.3879 -15.7792
lclavicle -1.97791e-014 -7.15625e-015
lhumerus -27.9842 12.0142 81.9328
lradius 30.0842
lwrist -9.79634
lhand -16.2764 23.4304
lfingers 7.12502
lthumb 9.93351 53.1761
rfemur -22.7179 3.3081 19.6138
rtibia 21.1473
rfoot 0.855062 -3.55491
rtoes 15.1466
lfemur 6.31919 -4.65098 -25.8359
ltibia 35.4434
lfoot -5.66594 1.38611
ltoes -14.906
477
root 9.69071 17.3933 27.5536 1.94161 36.3643 3.53323
lowerback 6.54673 -1.6011 -2.77561
upperback 0.287973 -2.23643 2.72692
thorax -3.15738 -1.05186 4.59245
lowerneck -17.7913 -2.67669 -9.59989
upperneck 24.6535 -1.46939 2.48287
head 11.0441 -1.22797 2.30609
rclavicle -4.37326e-015 -9.54166e-015
rhumerus -39.4444 -20.2117 -71.8886
rradius 26.8318
rwrist 8.0529
rhand -12.8225 13.8591
rfingers 7.12502
rthumb 13.2643 -15.6988
lclavicle -4.37326e-015 -9.54166e-015
lhumerus -28.3339 12.1324 81.8728
lradius 29.7176
lwrist -10.2079
lhand -16.0544 23.2048
lfingers 7.12502
lthumb 10.1477 52.94
rfemur -22.233 3.06753 19.2216
rtibia 21.5631
rfoot 0.389857 -4.45053
rtoes 13.7925
lfemur 5.49687 -3.70731 -26.1493
ltibia 37.1426
lfoot -3.08395 0.678474
ltoes -17.5727
478
root 9.75552 17.4134 27.685 1.85285 35.9612 3.42644
lowerback 6.6715 -1.43563 -2.81643
upperback 0.312701 -2.01895 2.77764
thorax -3.21996 -0.941289 4.65443
lowerneck -17.953 -2.70663 -9.55789
upperneck 24.6507 -1.48249 2.39445
head 11.0749 -1.24073 2.264
rclavicle -2.33572e-014 2.46493e-014
rhumerus -39.3619 -20.0221 -71.9834
rradius 26.882
rwrist 8.09383
rhand -13.0494 13.7631
rfingers 7.12502
rthumb 13.0456 -15.8089
lclavicle -2.33572e-014 2.46493e-014
lhumerus -28.7769 12.1521 81.9615
lradius 29.7467
lwrist -10.217
lhand -15.7752 23.2598
lfingers 7.12502
lthumb 10.417 52.9817
rfemur -21.9778 3.48626 19.4225
rtibia 21.9317
rfoot 0.214833 -5.01541
rtoes 14.2669
lfemur 4.46944 -2.93675 -25.8025
ltibia 38.9919
lfoot 0.0228029 0.291033
ltoes -16.1839
479
root 9.8374 17.4335 27.8414 1.35777 36.1294 2.78655
lowerback 6.31442 -1.49564 -2.42252
upperback 0.556313 -2.05723 3.00942
thorax -2.7689 -0.977594 4.65654
lowerneck -18.04 -2.73066 -9.76085
upperneck 24.404 -1.47511 2.48818
head 11.0023 -1.23923 2.32958
rclavicle 6.65929e-015 -7.95139e-016
rhumerus -38.8842 -19.8503 -72.0328
rradius 26.7794
rwrist 8.13359
rhand -12.7789 13.5757
rfingers 7.12502
rthumb 13.3063 -15.9795
lclavicle 6.65929e-015 -7.95139e-016
lhumerus -28.9845 12.7443 82.0807
lradius 29.58
lwrist -10.8103
lhand -15.6756 21.963
lfingers 7.12502
lthumb 10.5131 51.6801
rfemur -21.1609 3.43425 20.0904
rtibia 22.0074
rfoot -0.121246 -4.5953
rtoes 15.5778
lfemur 3.71244 -2.7397 -24.9068
ltibia 41.0274
lfoot 2.95819 0.0542496
ltoes -12.2172
480
root 9.9007 17.45 27.9731 1.22825 35.8438 2.7514
lowerback 6.39655 -1.30827 -2.52167
upperback 0.723023 -1.81465 3.05451
thorax -2.66136 -0.859896 4.73963
lowerneck -18.3883 -2.80577 -9.88655
upperneck 24.4083 -1.54135 2.62325
head 11.0783 -1.2638 2.38903
rclavicle -5.96354e-016 7.95139e-016
rhumerus -38.4784 -19.8346 -72.092
rradius 26.7668
rwrist 8.27297
rhand -12.6645 13.8327
rfingers 7.12502
rthumb 13.4166 -15.7153
lclavicle -5.96354e-016 7.95139e-016
lhumerus -28.8962 12.8255 82.3855
lradius 29.1911
lwrist -11.0665
lhand -16.2503 19.7224
lfingers 7.12502
lthumb 9.95863 49.4668
rfemur -20.4031 3.88867 20.2379
rtibia 21.7932
rfoot -0.211887 -4.27695
rtoes 15.3188
lfemur 2.50284 -2.04473 -24.6073
ltibia 43.2604
lfoot 5.73012 -0.542183
ltoes -11.8669
